<?xml version="1.0" encoding="utf-8"?>
<!-- Generator: Adobe Illustrator 19.0.0, SVG Export Plug-In . SVG Version: 6.00 Build 0)  -->
<svg version="1.1" id="svg4525" xmlns="http://www.w3.org/2000/svg" xmlns:xlink="http://www.w3.org/1999/xlink" x="0px" y="0px"
	 viewBox="308 -1052 2199 2500" style="enable-background:new 308 -1052 2199 2500;" xml:space="preserve">
<style type="text/css">
	.st0{opacity:0.986;fill:#FFFFFF;fill-opacity:0;enable-background:new    ;}
	.st1{fill:#D4B830;}
	.st2{fill:#FDD83C;}
	.st3{fill:#FFFFFF;}
</style>
<path id="path5159" class="st0" d="M-852.6,750.1c-28.3-8.6-168.1-46.3-310.5-84.9l-258.1-69.5V466.2c0-126.9,0-129.5,12.9-125.2
	c6.9,2.6,101.2,28.3,209.3,58.3l196.4,54l1.7-574.6l1.7-574.6h214.4V34.9c0,580.6-1.7,730.7-7.7,730.7
	C-796.8,764.7-824.3,757.8-852.6,750.1L-852.6,750.1z"/>
<g>
	<polygon class="st1" points="512.1,1195.4 308,-1051.6 2507,-1050.7 2304.6,1193.7 1405.8,1447.6 	"/>
	<polygon class="st2" points="2139.1,1072.8 2309.7,-851.7 1409.2,-851.7 1416.1,1270.9 	"/>
	<polygon class="st3" points="1325.2,-569.6 1106.5,-569.6 1103.9,582.2 679.4,466.4 680.2,729.7 1325.2,903.8 1325.2,-569.6 	"/>
	<polygon class="st3" points="2092.7,749.5 2151.9,29.9 1714.5,78.8 1714.5,-305.4 2181.1,-307.1 2200,-569.6 1495.8,-566.2 
		1505.3,389.3 1930.7,316.4 1924.7,529 1495.8,643.1 1500.1,903.8 2092.7,749.5 	"/>
</g>
</svg>
