<?xml version="1.0" encoding="utf-8"?>
<!-- Generator: Adobe Illustrator 19.0.0, SVG Export Plug-In . SVG Version: 6.00 Build 0)  -->
<svg version="1.1" xmlns="http://www.w3.org/2000/svg" xmlns:xlink="http://www.w3.org/1999/xlink" x="0px" y="0px"
	 viewBox="944 -854 2500 2500" style="enable-background:new 944 -854 2500 2500;" xml:space="preserve">
<style type="text/css">
	.st0{fill:#2DAAE1;}
	.st1{fill:#FFFFFF;}
</style>
<circle class="st0" cx="2194" cy="398.3" r="1250"/>
<path class="st1" d="M3121.9-98.9c-59,26.2-122.3,43.8-188.9,51.8c68-40.7,120-105.2,144.6-181.9c-64.6,38.3-135.2,65.3-208.9,79.8
	c-60-63.9-145.4-103.8-240-103.8c-181.5,0-328.8,147.2-328.8,328.8c0,25.7,2.9,50.8,8.5,75C2035.1,137,1792.8,6.1,1630.7-192.8
	c-28.3,48.6-44.5,105.1-44.5,165.3c0,114.1,58.1,214.7,146.3,273.7c-52.2-1.6-103.3-15.7-149-41.1v4.2
	c0,159.3,113.3,292.2,263.8,322.4c-27.6,7.6-56.6,11.5-86.6,11.5c-21.2,0-41.8-2-61.9-5.8C1740.5,668,1862,763,2005.8,765.7
	c-112.5,88.2-254.4,140.8-408.4,140.8c-26.5,0-52.7-1.6-78.5-4.7c145.5,93.3,318.4,147.8,504.1,147.8
	c604.8,0,935.6-501.1,935.6-935.6c0-14.3-0.3-28.4-1-42.5C3022.1,24.9,3077.7-32.8,3121.9-98.9L3121.9-98.9z"/>
</svg>
