<?xml version="1.0" encoding="utf-8"?>
<!-- Generator: Adobe Illustrator 19.0.0, SVG Export Plug-In . SVG Version: 6.00 Build 0)  -->
<svg version="1.1"  xmlns="http://www.w3.org/2000/svg" xmlns:xlink="http://www.w3.org/1999/xlink" x="0px" y="0px"
	 viewBox="939 -854 2489 2500" style="enable-background:new 939 -854 2489 2500;" xml:space="preserve">
<style type="text/css">
	.st0{fill:#E0E0E0;}
	.st1{fill:url(#SVGID_1_);}
	.st2{fill:#FFFFFF;}
</style>
<path class="st0" d="M3065.3-490.7c-234-234.1-545.1-363.2-876.6-363.3C1505.6-854,949.8-298.3,949.5,384.7
	c-0.1,218.3,57,431.5,165.4,619.3L939.1,1646l656.9-172.3c181,98.7,384.8,150.7,592.2,150.8h0.5h0c683,0,1238.9-555.8,1239.2-1238.8
	C3428,54.7,3299.2-256.5,3065.3-490.7L3065.3-490.7z M2188.7,1415.3h-0.4c-184.9-0.1-366.1-49.7-524.2-143.5l-37.6-22.3
	l-389.8,102.2l104.1-379.9l-24.5-39c-103.1-163.9-157.5-353.4-157.5-548c0.2-567.7,462.3-1029.6,1030.4-1029.6
	c275.1,0.1,533.7,107.4,728.2,302c194.5,194.6,301.5,453.3,301.4,728.5C3218.4,953.4,2756.4,1415.3,2188.7,1415.3z"/>
<linearGradient id="SVGID_1_" gradientUnits="userSpaceOnUse" x1="2027.6536" y1="20.3515" x2="2027.6536" y2="1189.3834" gradientTransform="matrix(2.0408 0 0 -2.0408 -1954.5223 1616.3054)">
	<stop  offset="0" style="stop-color:#20B038"/>
	<stop  offset="1" style="stop-color:#60D66A"/>
</linearGradient>
<path class="st1" d="M996,1574.8l167.8-612.6c-103.5-179.3-157.9-382.7-157.9-591C1006.1-280.7,1536.6-811,2188.4-811
	c316.4,0.1,613.3,123.3,836.5,346.7c223.3,223.5,346.2,520.5,346.1,836.3c-0.3,651.8-530.8,1182.2-1182.5,1182.2c0,0,0,0,0,0h-0.5
	c-197.9-0.1-392.4-49.7-565.1-143.9L996,1574.8L996,1574.8z"/>
<path class="st2" d="M1882.5-141.2c-22.9-51-47.1-52-68.9-52.9c-17.8-0.8-38.3-0.7-58.7-0.7c-20.4,0-53.6,7.7-81.6,38.3
	c-28.1,30.6-107.1,104.7-107.1,255.3c0,150.6,109.7,296.1,125,316.6c15.3,20.4,211.7,339.3,522.9,462
	c258.6,102,311.2,81.7,367.3,76.6s181.1-74,206.6-145.5c25.5-71.5,25.5-132.7,17.9-145.5c-7.7-12.8-28.1-20.4-58.7-35.7
	S2566,537.8,2538,527.6c-28.1-10.2-48.5-15.3-68.9,15.3c-20.4,30.6-79,99.5-96.9,119.9c-17.9,20.5-35.7,23-66.3,7.7
	c-30.6-15.4-129.2-47.6-246.1-151.9c-91-81.1-152.4-181.3-170.3-212c-17.9-30.6-1.9-47.2,13.4-62.5c13.7-13.7,30.6-35.7,45.9-53.6
	c15.3-17.9,20.4-30.6,30.6-51c10.2-20.4,5.1-38.3-2.6-53.6S1909.7-80.6,1882.5-141.2L1882.5-141.2z"/>
<path class="st2" d="M3055.2-494.6c-231.3-231.5-538.8-359-866.5-359.1c-675.2,0-1224.7,549.3-1225,1224.5
	c-0.1,215.8,56.3,426.5,163.5,612.2l-173.8,634.6l649.4-170.3c178.9,97.6,380.4,149,585.4,149.1h0.5h0
	c675.1,0,1224.7-549.4,1225-1224.6C3413.7,44.5,3286.4-263.2,3055.2-494.6L3055.2-494.6z M2188.6,1389.5h-0.4
	c-182.7-0.1-361.9-49.2-518.2-141.9l-37.2-22.1l-385.4,101L1350.4,951l-24.2-38.5c-101.9-162.1-155.7-349.4-155.7-541.7
	c0.2-561.2,456.9-1017.8,1018.6-1017.8c272,0.1,527.6,106.1,719.8,298.5c192.2,192.4,298,448.1,297.9,720.1
	C3206.6,932.9,2749.8,1389.5,2188.6,1389.5z"/>
</svg>
