<?xml version="1.0" encoding="utf-8"?>
<!-- Generator: Adobe Illustrator 19.0.0, SVG Export Plug-In . SVG Version: 6.00 Build 0)  -->
<svg version="1.1" id="Layer_1" xmlns="http://www.w3.org/2000/svg" xmlns:xlink="http://www.w3.org/1999/xlink" x="0px" y="0px"
	 viewBox="0 0 600 314" style="enable-background:new 0 0 600 314;" xml:space="preserve">
<style type="text/css">
	.st0{fill:#008983;}
	.st1{fill:#FFFFFF;}
</style>
<rect id="XMLID_1_" class="st0" width="600" height="314"/>
<g id="XMLID_5_">
	<path id="XMLID_6_" class="st1" d="M151.8,142.6l28.2-41.3c1.9-3,3.2-4.9,3.9-5.6c0.7-0.7,1.6-1.1,2.8-1.1c1,0,1.9,0.2,2.5,0.8
		c0.7,0.5,1,1.2,1,1.9c0,0.8-0.4,1.7-1.1,2.7c-0.5,0.8-1.1,1.6-1.8,2.5l-2.9,3.8l-72.3,101.7l-2.9,4c-2.5,3.6-4.2,5.6-4.9,6.3
		c-0.7,0.7-1.6,1-2.8,1c-1.9,0-2.9-0.8-2.9-2.5c0-0.9,0.8-2.4,2.6-4.4l20.3-27.6l-2.5-3.4c-18-24.2-30.8-41.2-38.2-50.7
		s-16.9-21.1-28.3-34.6h64.5L151.8,142.6z"/>
</g>
<g id="XMLID_45_">
	<path id="XMLID_46_" class="st1" d="M259.7,138.3v-11.8h-3.4v11.8h-5.8v-28.9h5.8V121h3.4v-11.6h5.8v28.9H259.7z"/>
	<path id="XMLID_48_" class="st1" d="M281.6,129.2h-8c0,1.6,0.1,2.7,0.2,3.3c0.1,0.6,0.4,1,0.8,1.2c0.4,0.2,1.1,0.3,2.1,0.3
		c1.2,0,2.7-0.1,4.6-0.2v4.2c-0.7,0.2-1.6,0.3-2.7,0.4c-1.1,0.1-2.2,0.2-3.2,0.2c-2.2,0-3.8-0.4-4.8-1.2c-1-0.8-1.6-1.9-1.9-3.3
		c-0.3-1.4-0.4-3.6-0.4-6.5c0-2.9,0.1-5.1,0.4-6.6c0.3-1.5,0.9-2.6,1.9-3.4c1-0.8,2.5-1.2,4.6-1.2s3.6,0.4,4.5,1.1
		c0.9,0.7,1.4,1.8,1.7,3.2c0.2,1.4,0.3,3.7,0.3,6.8V129.2z M274.1,121.4c-0.2,0.2-0.3,0.5-0.4,1.1c-0.1,0.6-0.1,1.6-0.1,3h2.9v-0.1
		c0-1.4,0-2.4-0.1-2.9c-0.1-0.6-0.2-0.9-0.4-1.1s-0.5-0.3-0.9-0.3C274.6,121.1,274.3,121.2,274.1,121.4z"/>
	<path id="XMLID_51_" class="st1" d="M284.1,138.3v-31.2h5.4v31.2H284.1z"/>
	<path id="XMLID_53_" class="st1" d="M292.4,116.8h5.2l0.2,2.5h0.3c0.2-1,0.7-1.7,1.3-2.2c0.7-0.4,1.4-0.7,2.2-0.7
		c1.2,0,2.2,0.3,2.8,0.9c0.7,0.6,1.1,1.7,1.4,3.3c0.3,1.6,0.4,3.9,0.4,6.8c0,2.9-0.1,5.1-0.4,6.7c-0.3,1.6-0.7,2.7-1.4,3.4
		c-0.7,0.7-1.6,1-2.8,1c-1.9,0-3.1-0.9-3.5-2.6h-0.4v10.6h-5.4V116.8z M300.4,133.4c0.2-0.2,0.3-0.7,0.4-1.5
		c0.1-0.8,0.1-2.2,0.1-4.3s0-3.5-0.1-4.3c-0.1-0.8-0.2-1.3-0.4-1.5c-0.2-0.2-0.5-0.3-1.1-0.3c-0.4,0-0.7,0.1-0.9,0.3
		s-0.4,0.5-0.5,1.1c-0.1,0.8-0.1,2.4-0.1,4.8c0,2.5,0,4,0.1,4.6c0.1,0.6,0.3,1.1,0.5,1.3c0.2,0.2,0.5,0.3,0.9,0.3
		C299.9,133.7,300.2,133.6,300.4,133.4z"/>
	<path id="XMLID_56_" class="st1" d="M308.8,112.2v-5.2h5.5v5.2H308.8z M308.8,138.3v-21.4h5.4v21.4H308.8z"/>
	<path id="XMLID_59_" class="st1" d="M325.4,126.5c0-1.8,0-3-0.1-3.6c-0.1-0.7-0.2-1.1-0.3-1.2c-0.2-0.2-0.5-0.3-1-0.3
		c-0.5,0-0.8,0.1-1,0.4c-0.2,0.3-0.3,0.8-0.4,1.6c-0.1,0.8-0.1,2.2-0.1,4.2v10.7h-5.4v-21.4h5.2l0.2,2.5h0.3c0.6-1.9,1.9-2.8,4-2.8
		c1.1,0,2,0.2,2.6,0.7c0.6,0.5,0.9,1.2,1.1,2.3c0.2,1,0.3,2.5,0.3,4.3v14.4h-5.4V126.5z"/>
	<path id="XMLID_61_" class="st1" d="M334.4,146.4v-4.2l4.2,0c1,0,1.8-0.1,2.2-0.3s0.7-0.6,0.8-1.2c0.1-0.6,0.2-1.7,0.2-3.4v-1.9
		h-0.4c-0.4,1.7-1.6,2.6-3.5,2.6c-1.2,0-2.2-0.3-2.8-1c-0.7-0.7-1.1-1.8-1.4-3.3c-0.3-1.5-0.4-3.7-0.4-6.6c0-2.9,0.1-5.1,0.4-6.7
		c0.3-1.5,0.7-2.6,1.4-3.2c0.7-0.6,1.6-0.9,2.8-0.9c0.8,0,1.5,0.2,2.2,0.7c0.7,0.4,1.1,1.2,1.3,2.2h0.3l0.2-2.5h5.2v18.9
		c0,2.9-0.1,5.1-0.4,6.6c-0.3,1.5-0.9,2.6-1.9,3.4c-1,0.8-2.7,1.2-4.9,1.2C337.8,146.9,336,146.7,334.4,146.4z M341.1,132.9
		c0.2-0.2,0.3-0.5,0.5-1c0.1-0.7,0.2-2.2,0.2-4.6c0-2,0-3.4-0.1-4.2c-0.1-0.7-0.3-1.1-0.5-1.3c-0.2-0.2-0.5-0.3-1-0.3
		c-0.5,0-0.9,0.1-1,0.3c-0.2,0.2-0.3,0.7-0.4,1.4c-0.1,0.8-0.1,2.1-0.1,4.1c0,2,0,3.4,0.1,4.2c0.1,0.8,0.2,1.3,0.4,1.4
		c0.2,0.2,0.5,0.3,1,0.3C340.6,133.2,340.9,133.1,341.1,132.9z"/>
	<path id="XMLID_64_" class="st1" d="M360,138.3v-10l-5.5-18.9h5.8l2.6,12.5h0.4l2.4-12.5h5.6l-5.5,18.9v10H360z"/>
	<path id="XMLID_66_" class="st1" d="M372.4,137.7c-1-0.6-1.6-1.7-1.9-3.1c-0.3-1.5-0.4-3.8-0.4-7s0.1-5.5,0.4-7
		c0.3-1.5,0.9-2.5,1.9-3.1c1-0.6,2.5-0.9,4.6-0.9c2.2,0,3.7,0.3,4.7,0.9c1,0.6,1.6,1.7,1.8,3.1c0.3,1.5,0.4,3.8,0.4,7
		c0,3.2-0.1,5.6-0.4,7c-0.3,1.5-0.9,2.5-1.8,3.1c-1,0.6-2.5,0.9-4.7,0.9C374.9,138.6,373.4,138.3,372.4,137.7z M378.1,133.6
		c0.2-0.2,0.3-0.7,0.4-1.5c0.1-0.8,0.1-2.3,0.1-4.5c0-2.2,0-3.8-0.1-4.5c-0.1-0.8-0.2-1.3-0.4-1.5c-0.2-0.2-0.5-0.4-1.1-0.4
		c-0.5,0-0.9,0.1-1,0.4c-0.2,0.2-0.3,0.8-0.4,1.6c-0.1,0.8-0.1,2.3-0.1,4.5s0,3.7,0.1,4.5c0.1,0.8,0.2,1.3,0.4,1.6
		c0.2,0.2,0.5,0.4,1,0.4C377.6,134,377.9,133.9,378.1,133.6z"/>
	<path id="XMLID_69_" class="st1" d="M394.8,135.8h-0.4c-0.5,1.9-1.8,2.8-3.9,2.8c-1.1,0-2-0.2-2.6-0.7c-0.6-0.5-1-1.2-1.2-2.3
		c-0.2-1-0.3-2.5-0.3-4.3v-14.4h5.4v11.7c0,1.8,0,3,0.1,3.6c0.1,0.7,0.2,1.1,0.3,1.2s0.5,0.3,1,0.3c0.5,0,0.9-0.1,1-0.4
		c0.2-0.3,0.3-0.8,0.4-1.5c0-0.8,0.1-2.2,0.1-4.2v-10.7h5.4v21.4h-5.2L394.8,135.8z"/>
	<path id="XMLID_71_" class="st1" d="M409.3,109.4h8.2c4.2,0,6.3,2.4,6.3,7.3c0,2-0.3,3.6-0.8,4.7c-0.5,1.1-1.4,1.8-2.5,2.1v0.2
		c1.3,0.3,2.2,1,2.8,2c0.6,1,0.9,2.6,0.9,4.9c0,2.6-0.5,4.5-1.5,5.8c-1,1.3-2.7,1.9-4.9,1.9h-8.2V109.4z M417.5,120.9
		c0.3-0.2,0.4-0.5,0.5-0.9c0.1-0.4,0.2-1.2,0.2-2.1c0-1,0-1.7-0.1-2.2c-0.1-0.4-0.3-0.7-0.5-0.9c-0.3-0.1-0.7-0.2-1.3-0.2H415v6.5
		h1.3C416.8,121.1,417.3,121,417.5,120.9z M417.6,132.8c0.3-0.2,0.4-0.5,0.5-0.9c0.1-0.4,0.1-1.2,0.1-2.3c0-1-0.1-1.8-0.2-2.2
		c-0.1-0.5-0.3-0.8-0.5-0.9c-0.3-0.2-0.7-0.2-1.2-0.2H415v6.8h1.3C416.9,133.1,417.3,133,417.6,132.8z"/>
	<path id="XMLID_75_" class="st1" d="M434.6,135.8h-0.4c-0.5,1.9-1.8,2.8-3.9,2.8c-1.1,0-2-0.2-2.6-0.7c-0.6-0.5-1-1.2-1.2-2.3
		c-0.2-1-0.3-2.5-0.3-4.3v-14.4h5.4v11.7c0,1.8,0,3,0.1,3.6c0.1,0.7,0.2,1.1,0.3,1.2s0.5,0.3,1,0.3c0.5,0,0.9-0.1,1.1-0.4
		c0.2-0.3,0.3-0.8,0.4-1.5c0-0.8,0.1-2.2,0.1-4.2v-10.7h5.4v21.4h-5.2L434.6,135.8z"/>
	<path id="XMLID_77_" class="st1" d="M442.8,112.2v-5.2h5.5v5.2H442.8z M442.8,138.3v-21.4h5.4v21.4H442.8z"/>
	<path id="XMLID_80_" class="st1" d="M451.1,138.3v-31.2h5.4v31.2H451.1z"/>
	<path id="XMLID_82_" class="st1" d="M460.9,137.7c-0.7-0.6-1.1-1.7-1.4-3.3c-0.3-1.6-0.4-3.8-0.4-6.8c0-2.9,0.1-5.1,0.4-6.7
		c0.3-1.6,0.7-2.7,1.4-3.4s1.6-1,2.8-1c1.9,0,3.1,0.9,3.5,2.6h0.4v-12.1h5.4v31.2h-5.2l-0.2-2.5h-0.3c-0.2,1-0.7,1.7-1.3,2.2
		c-0.7,0.4-1.4,0.7-2.2,0.7C462.5,138.6,461.5,138.3,460.9,137.7z M466.9,133.4c0.2-0.2,0.3-0.6,0.4-1.2c0.1-1,0.2-2.6,0.2-4.7
		c0-2.1,0-3.5-0.1-4.4c-0.1-0.7-0.3-1.2-0.5-1.4c-0.2-0.2-0.5-0.3-1-0.3c-0.5,0-0.9,0.1-1,0.3c-0.2,0.2-0.3,0.7-0.4,1.5
		c-0.1,0.8-0.1,2.2-0.1,4.3s0,3.5,0.1,4.3c0.1,0.8,0.2,1.3,0.4,1.5c0.2,0.2,0.5,0.3,1,0.3C466.4,133.7,466.7,133.6,466.9,133.4z"/>
</g>
<g id="XMLID_9_">
	<path id="XMLID_10_" class="st1" d="M220.5,219.4v-12L214,185h6.9l3.1,14.9h0.5l2.9-14.9h6.7l-6.5,22.5v12H220.5z"/>
	<path id="XMLID_12_" class="st1" d="M235.3,218.7c-1.1-0.7-1.9-2-2.2-3.7s-0.5-4.5-0.5-8.3s0.2-6.6,0.5-8.3s1.1-3,2.2-3.7
		c1.1-0.7,3-1.1,5.5-1.1c2.6,0,4.4,0.4,5.5,1.1c1.1,0.7,1.9,2,2.2,3.7c0.3,1.7,0.5,4.5,0.5,8.4s-0.2,6.6-0.5,8.3
		c-0.3,1.7-1.1,3-2.2,3.7c-1.1,0.7-3,1.1-5.5,1.1C238.3,219.8,236.4,219.4,235.3,218.7z M242.1,213.8c0.2-0.3,0.4-0.9,0.4-1.8
		c0.1-0.9,0.1-2.7,0.1-5.4s0-4.5-0.1-5.4c-0.1-0.9-0.2-1.5-0.4-1.8c-0.2-0.3-0.6-0.4-1.3-0.4c-0.6,0-1,0.1-1.3,0.4
		c-0.2,0.3-0.4,0.9-0.5,1.9c-0.1,1-0.1,2.8-0.1,5.4c0,2.6,0,4.4,0.1,5.3c0.1,1,0.2,1.6,0.5,1.9c0.2,0.3,0.6,0.4,1.3,0.4
		C241.4,214.3,241.9,214.1,242.1,213.8z"/>
	<path id="XMLID_15_" class="st1" d="M261.9,216.4h-0.4c-0.6,2.2-2.2,3.3-4.7,3.3c-1.4,0-2.4-0.3-3.1-0.9c-0.7-0.6-1.1-1.5-1.4-2.7
		c-0.2-1.2-0.4-2.9-0.4-5.2v-17.1h6.4v14c0,2.1,0,3.5,0.1,4.3c0.1,0.8,0.2,1.3,0.4,1.5c0.2,0.2,0.6,0.3,1.2,0.3c0.6,0,1-0.2,1.3-0.5
		c0.2-0.3,0.4-0.9,0.4-1.8c0-0.9,0.1-2.6,0.1-5v-12.7h6.4v25.5h-6.1L261.9,216.4z"/>
	<path id="XMLID_17_" class="st1" d="M271.7,193.9h6.2l0.2,4.1h0.4c0.5-1.7,1.1-2.8,1.9-3.5c0.8-0.7,1.8-1,3.1-1v7
		c-1.8,0-3.1,0.5-4,1.4c-0.9,0.9-1.3,2.7-1.3,5.3v12.3h-6.4V193.9z"/>
	<path id="XMLID_19_" class="st1" d="M305.1,219.4l-5.4-17.3h-0.2v17.3h-6.5V185h6.3l4.9,15.6h0.3V185h6.5v34.4H305.1z"/>
	<path id="XMLID_21_" class="st1" d="M330.3,208.6h-9.5c0,1.9,0.1,3.2,0.2,3.9c0.1,0.7,0.4,1.2,0.9,1.4c0.5,0.2,1.3,0.3,2.5,0.3
		c1.4,0,3.3-0.1,5.5-0.2v5c-0.8,0.2-1.9,0.4-3.2,0.5c-1.3,0.1-2.6,0.2-3.8,0.2c-2.6,0-4.5-0.5-5.8-1.4c-1.2-0.9-2-2.2-2.3-3.9
		c-0.3-1.7-0.5-4.3-0.5-7.8c0-3.4,0.2-6,0.5-7.8s1.1-3.1,2.3-4c1.2-0.9,3-1.4,5.5-1.4s4.3,0.4,5.4,1.3c1.1,0.8,1.7,2.1,2,3.8
		c0.3,1.7,0.4,4.4,0.4,8.2V208.6z M321.4,199.3c-0.2,0.2-0.4,0.7-0.5,1.4c-0.1,0.7-0.1,1.9-0.1,3.6h3.5v-0.1c0-1.7,0-2.8-0.1-3.5
		c-0.1-0.7-0.2-1.1-0.5-1.3c-0.2-0.2-0.6-0.3-1.1-0.3C322,199,321.6,199.1,321.4,199.3z"/>
	<path id="XMLID_24_" class="st1" d="M347.4,219.4l-2-13.5H345l-1.9,13.5h-8.1l-3.8-25.5h6.3l1.7,17.3h0.4l2.5-17.3h6.4l2.5,17.3
		h0.5l1.6-17.3h6l-3.8,25.5H347.4z"/>
	<path id="XMLID_26_" class="st1" d="M385.8,219.4l-2.4-24H383l-2.4,24h-9.8l-3.5-34.4h6.9l1.7,27.3h0.4l2.8-27.3h8.4l2.9,27.3h0.4
		l1.5-27.3h6.8l-3.5,34.4H385.8z"/>
	<path id="XMLID_28_" class="st1" d="M415.4,208.6h-9.5c0,1.9,0.1,3.2,0.2,3.9s0.4,1.2,0.9,1.4c0.5,0.2,1.3,0.3,2.5,0.3
		c1.4,0,3.3-0.1,5.5-0.2v5c-0.8,0.2-1.9,0.4-3.2,0.5c-1.3,0.1-2.6,0.2-3.8,0.2c-2.6,0-4.5-0.5-5.8-1.4c-1.2-0.9-2-2.2-2.3-3.9
		c-0.3-1.7-0.5-4.3-0.5-7.8c0-3.4,0.2-6,0.5-7.8c0.3-1.8,1.1-3.1,2.3-4c1.2-0.9,3-1.4,5.5-1.4s4.3,0.4,5.3,1.3
		c1.1,0.8,1.7,2.1,2,3.8c0.3,1.7,0.4,4.4,0.4,8.2V208.6z M406.5,199.3c-0.2,0.2-0.4,0.7-0.5,1.4c-0.1,0.7-0.1,1.9-0.1,3.6h3.5v-0.1
		c0-1.7,0-2.8-0.1-3.5c-0.1-0.7-0.2-1.1-0.5-1.3c-0.2-0.2-0.6-0.3-1.1-0.3C407.2,199,406.8,199.1,406.5,199.3z"/>
	<path id="XMLID_31_" class="st1" d="M426.8,219c-0.8-0.5-1.3-1.4-1.6-2.6h-0.4l-0.2,3h-6.2v-37.2h6.4v14.4h0.5
		c0.5-2.1,1.9-3.1,4.2-3.1c1.5,0,2.6,0.4,3.4,1.2s1.3,2.1,1.6,4c0.3,1.9,0.5,4.5,0.5,8c0,3.6-0.2,6.3-0.5,8.1
		c-0.3,1.9-0.9,3.2-1.7,3.9c-0.8,0.7-1.9,1.1-3.4,1.1C428.4,219.8,427.5,219.5,426.8,219z M427.9,213.5c0.2-0.3,0.4-0.8,0.5-1.8
		c0.1-0.9,0.1-2.6,0.1-5.1s0-4.2-0.1-5.2c-0.1-0.9-0.2-1.5-0.5-1.8c-0.2-0.3-0.7-0.4-1.3-0.4c-0.5,0-0.8,0.1-1,0.3
		c-0.2,0.2-0.4,0.5-0.6,1c-0.2,1.1-0.3,3.1-0.3,6c0,2.9,0.1,4.8,0.2,5.8c0.1,0.6,0.3,1,0.5,1.2c0.2,0.2,0.6,0.3,1.1,0.3
		C427.3,213.9,427.7,213.8,427.9,213.5z"/>
	<path id="XMLID_34_" class="st1" d="M457.4,219.4l-0.8-6.9h-5.2l-0.8,6.9h-6.9l5.2-34.4h10.3l5.2,34.4H457.4z M454.2,191.7h-0.3
		l-1.8,14.8h3.8L454.2,191.7z"/>
	<path id="XMLID_37_" class="st1" d="M466.4,193.9h6.2l0.2,3h0.4c0.3-1.2,0.8-2.1,1.6-2.6c0.8-0.5,1.7-0.8,2.6-0.8
		c1.5,0,2.6,0.4,3.4,1.1c0.8,0.7,1.3,2,1.7,3.9c0.3,1.9,0.5,4.6,0.5,8.2c0,3.4-0.2,6.1-0.5,8s-0.8,3.2-1.6,4
		c-0.8,0.8-1.9,1.2-3.4,1.2c-2.3,0-3.7-1-4.2-3.1h-0.5v12.6h-6.4V193.9z M475.9,213.5c0.2-0.3,0.4-0.8,0.5-1.8
		c0.1-0.9,0.1-2.6,0.1-5.1s0-4.2-0.1-5.2c-0.1-0.9-0.2-1.5-0.5-1.8c-0.2-0.3-0.7-0.4-1.3-0.4c-0.5,0-0.9,0.1-1.1,0.3
		s-0.4,0.6-0.6,1.3c-0.1,0.9-0.2,2.8-0.2,5.7c0,2.9,0.1,4.8,0.2,5.5c0.1,0.8,0.3,1.3,0.6,1.5s0.6,0.3,1.1,0.3
		C475.3,213.9,475.7,213.8,475.9,213.5z"/>
	<path id="XMLID_40_" class="st1" d="M485.9,193.9h6.2l0.2,3h0.4c0.3-1.2,0.8-2.1,1.6-2.6c0.8-0.5,1.7-0.8,2.6-0.8
		c1.5,0,2.6,0.4,3.4,1.1c0.8,0.7,1.3,2,1.7,3.9c0.3,1.9,0.5,4.6,0.5,8.2c0,3.4-0.2,6.1-0.5,8s-0.8,3.2-1.6,4
		c-0.8,0.8-1.9,1.2-3.4,1.2c-2.3,0-3.7-1-4.2-3.1h-0.5v12.6h-6.4V193.9z M495.4,213.5c0.2-0.3,0.4-0.8,0.5-1.8
		c0.1-0.9,0.1-2.6,0.1-5.1s0-4.2-0.1-5.2c-0.1-0.9-0.2-1.5-0.5-1.8c-0.2-0.3-0.7-0.4-1.3-0.4c-0.5,0-0.9,0.1-1.1,0.3
		s-0.4,0.6-0.6,1.3c-0.1,0.9-0.2,2.8-0.2,5.7c0,2.9,0.1,4.8,0.2,5.5c0.1,0.8,0.3,1.3,0.6,1.5s0.6,0.3,1.1,0.3
		C494.8,213.9,495.2,213.8,495.4,213.5z"/>
	<path id="XMLID_43_" class="st1" d="M505.9,219.4v-6.6h7v6.6H505.9z"/>
</g>
</svg>
