<?xml version="1.0" encoding="utf-8"?>
<!-- Generator: Adobe Illustrator 19.0.0, SVG Export Plug-In . SVG Version: 6.00 Build 0)  -->
<svg version="1.1" id="Layer_1" xmlns="http://www.w3.org/2000/svg" xmlns:xlink="http://www.w3.org/1999/xlink" x="0px" y="0px"
	 viewBox="0 0 360 360" style="enable-background:new 0 0 360 360;" xml:space="preserve">
<style type="text/css">
	.st0{fill:#008983;}
	.st1{fill:#FFFFFF;}
</style>
<circle id="XMLID_2_" class="st0" cx="180" cy="179.7" r="180"/>
<g id="XMLID_5_">
	<path id="XMLID_6_" class="st1" d="M230.6,171.3l46.5-68.1c3.1-5,5.3-8,6.5-9.2c1.2-1.2,2.7-1.8,4.6-1.8c1.7,0,3.1,0.4,4.2,1.3
		c1.1,0.9,1.7,2,1.7,3.2c0,1.3-0.6,2.8-1.8,4.5c-0.8,1.3-1.8,2.6-2.9,4.1l-4.7,6.3L165.6,279.1l-4.8,6.6c-4.2,5.9-6.9,9.3-8,10.4
		c-1.1,1.1-2.7,1.6-4.6,1.6c-3.1,0-4.7-1.4-4.7-4.1c0-1.5,1.4-3.9,4.3-7.2l33.4-45.4l-4.1-5.6c-29.7-39.9-50.7-67.8-62.9-83.5
		s-27.8-34.7-46.7-57h106.2L230.6,171.3z"/>
</g>
</svg>
