<?xml version="1.0" encoding="utf-8"?>
<!-- Generator: Adobe Illustrator 19.0.0, SVG Export Plug-In . SVG Version: 6.00 Build 0)  -->
<svg version="1.1" id="Layer_1" xmlns="http://www.w3.org/2000/svg" xmlns:xlink="http://www.w3.org/1999/xlink" x="0px" y="0px"
	 viewBox="0 0 600 314" style="enable-background:new 0 0 600 314;" xml:space="preserve">
<style type="text/css">
	.st0{fill:#008983;}
	.st1{fill:#FFFFFF;}
</style>
<rect id="XMLID_1_" class="st0" width="600" height="314"/>
<g id="XMLID_5_">
	<path id="XMLID_6_" class="st1" d="M164.5,134.6l28.2-41.3c1.9-3,3.2-4.9,3.9-5.6c0.7-0.7,1.6-1.1,2.8-1.1c1,0,1.9,0.2,2.5,0.8
		s1,1.2,1,1.9c0,0.8-0.4,1.7-1.1,2.7c-0.5,0.8-1.1,1.6-1.8,2.5l-2.9,3.8L125,200.1l-2.9,4c-2.5,3.6-4.2,5.6-4.9,6.3
		c-0.7,0.7-1.6,1-2.8,1c-1.9,0-2.9-0.8-2.9-2.5c0-0.9,0.8-2.4,2.6-4.4l20.3-27.6l-2.5-3.4c-18-24.2-30.8-41.2-38.2-50.7
		c-7.4-9.5-16.9-21.1-28.3-34.6h64.5L164.5,134.6z"/>
</g>
<g id="XMLID_56_">
	<path id="XMLID_57_" class="st1" d="M324.3,128.9v-9.8h-2.9v9.8h-4.8v-24.1h4.8v9.7h2.9v-9.7h4.8v24.1H324.3z"/>
	<path id="XMLID_59_" class="st1" d="M342.6,121.4h-6.7c0,1.3,0,2.2,0.1,2.7c0.1,0.5,0.3,0.8,0.6,1c0.3,0.2,0.9,0.2,1.8,0.2
		c1,0,2.3,0,3.8-0.1v3.5c-0.6,0.1-1.3,0.3-2.2,0.4c-0.9,0.1-1.8,0.1-2.7,0.1c-1.8,0-3.2-0.3-4-1c-0.8-0.6-1.4-1.6-1.6-2.8
		s-0.3-3-0.3-5.4c0-2.4,0.1-4.2,0.3-5.5c0.2-1.2,0.8-2.2,1.6-2.8c0.8-0.6,2.1-1,3.8-1s3,0.3,3.7,0.9c0.7,0.6,1.2,1.5,1.4,2.6
		c0.2,1.2,0.3,3.1,0.3,5.7V121.4z M336.3,114.9c-0.2,0.1-0.3,0.5-0.3,0.9c-0.1,0.5-0.1,1.3-0.1,2.5h2.5v-0.1c0-1.2,0-2-0.1-2.5
		c-0.1-0.5-0.2-0.8-0.3-0.9c-0.2-0.1-0.4-0.2-0.8-0.2C336.8,114.6,336.5,114.7,336.3,114.9z"/>
	<path id="XMLID_62_" class="st1" d="M344.6,128.9v-26h4.5v26H344.6z"/>
	<path id="XMLID_64_" class="st1" d="M351.6,111.1h4.3l0.1,2.1h0.3c0.2-0.8,0.6-1.4,1.1-1.8c0.5-0.4,1.2-0.5,1.8-0.5
		c1,0,1.8,0.3,2.4,0.8c0.5,0.5,0.9,1.4,1.2,2.7c0.2,1.3,0.4,3.2,0.4,5.7c0,2.4-0.1,4.3-0.3,5.6c-0.2,1.3-0.6,2.2-1.1,2.8
		c-0.5,0.6-1.3,0.8-2.4,0.8c-1.6,0-2.6-0.7-2.9-2.2h-0.3v8.8h-4.5V111.1z M358.2,124.8c0.2-0.2,0.3-0.6,0.3-1.2
		c0-0.7,0.1-1.9,0.1-3.6s0-3-0.1-3.6c0-0.7-0.2-1.1-0.3-1.2s-0.5-0.3-0.9-0.3c-0.3,0-0.6,0.1-0.8,0.2c-0.2,0.1-0.3,0.4-0.4,0.9
		c-0.1,0.7-0.1,2-0.1,4c0,2.1,0,3.3,0.1,3.8c0.1,0.5,0.2,0.9,0.4,1c0.2,0.2,0.4,0.2,0.8,0.2C357.8,125.1,358.1,125,358.2,124.8z"/>
	<path id="XMLID_67_" class="st1" d="M365.2,107.2v-4.3h4.6v4.3H365.2z M365.2,128.9v-17.9h4.5v17.9H365.2z"/>
	<path id="XMLID_70_" class="st1" d="M379,119.2c0-1.5,0-2.5-0.1-3c0-0.5-0.1-0.9-0.3-1c-0.1-0.1-0.4-0.2-0.8-0.2
		c-0.4,0-0.7,0.1-0.9,0.3c-0.2,0.2-0.3,0.7-0.3,1.3c0,0.7-0.1,1.8-0.1,3.5v8.9h-4.5v-17.9h4.3l0.1,2.1h0.3c0.5-1.6,1.6-2.3,3.3-2.3
		c1,0,1.7,0.2,2.1,0.6c0.5,0.4,0.8,1,0.9,1.9c0.2,0.9,0.2,2.1,0.2,3.6v12H379V119.2z"/>
	<path id="XMLID_72_" class="st1" d="M386.6,135.8v-3.5l3.5,0c0.9,0,1.5-0.1,1.8-0.3c0.3-0.2,0.6-0.5,0.6-1c0.1-0.5,0.1-1.4,0.1-2.8
		v-1.6h-0.3c-0.4,1.4-1.3,2.2-2.9,2.2c-1,0-1.8-0.3-2.4-0.8c-0.5-0.5-0.9-1.5-1.1-2.7c-0.2-1.3-0.3-3.1-0.3-5.5
		c0-2.4,0.1-4.3,0.3-5.5c0.2-1.3,0.6-2.2,1.2-2.7c0.5-0.5,1.3-0.8,2.4-0.8c0.7,0,1.3,0.2,1.8,0.5c0.5,0.4,0.9,1,1.1,1.8h0.3l0.1-2.1
		h4.3v15.8c0,2.4-0.1,4.3-0.3,5.5s-0.8,2.2-1.6,2.8c-0.9,0.7-2.2,1-4.1,1C389.4,136.1,387.9,136,386.6,135.8z M392.1,124.5
		c0.2-0.1,0.3-0.4,0.4-0.9c0.1-0.6,0.1-1.9,0.1-3.9c0-1.7,0-2.8-0.1-3.5c-0.1-0.6-0.2-1-0.4-1.1c-0.2-0.2-0.4-0.2-0.8-0.2
		c-0.4,0-0.7,0.1-0.9,0.2c-0.2,0.2-0.3,0.6-0.3,1.2c0,0.6-0.1,1.8-0.1,3.4c0,1.7,0,2.8,0.1,3.5c0,0.6,0.2,1,0.3,1.2
		c0.2,0.2,0.5,0.2,0.9,0.2C391.7,124.7,392,124.6,392.1,124.5z"/>
	<path id="XMLID_75_" class="st1" d="M407.9,128.9v-8.4l-4.6-15.7h4.8l2.1,10.4h0.4l2-10.4h4.7l-4.6,15.7v8.4H407.9z"/>
	<path id="XMLID_77_" class="st1" d="M418.3,128.4c-0.8-0.5-1.3-1.4-1.6-2.6c-0.2-1.2-0.4-3.2-0.4-5.8c0-2.7,0.1-4.6,0.4-5.8
		c0.2-1.2,0.8-2.1,1.6-2.6s2.1-0.8,3.9-0.8c1.8,0,3.1,0.3,3.9,0.8s1.3,1.4,1.5,2.6c0.2,1.2,0.3,3.2,0.3,5.8s-0.1,4.6-0.3,5.8
		c-0.2,1.2-0.7,2.1-1.5,2.6c-0.8,0.5-2.1,0.8-3.9,0.8C420.3,129.2,419.1,128.9,418.3,128.4z M423,125.1c0.2-0.2,0.3-0.6,0.3-1.3
		c0-0.7,0.1-1.9,0.1-3.8s0-3.1-0.1-3.8c0-0.7-0.1-1.1-0.3-1.3c-0.2-0.2-0.5-0.3-0.9-0.3c-0.4,0-0.7,0.1-0.9,0.3
		c-0.2,0.2-0.3,0.6-0.3,1.3s-0.1,1.9-0.1,3.7c0,1.8,0,3.1,0.1,3.7c0,0.7,0.2,1.1,0.3,1.3c0.2,0.2,0.5,0.3,0.9,0.3
		C422.6,125.4,422.9,125.3,423,125.1z"/>
	<path id="XMLID_80_" class="st1" d="M436.9,126.9h-0.3c-0.4,1.6-1.5,2.3-3.3,2.3c-1,0-1.7-0.2-2.2-0.6c-0.5-0.4-0.8-1-1-1.9
		c-0.2-0.9-0.2-2.1-0.2-3.6v-12h4.5v9.8c0,1.5,0,2.5,0.1,3c0,0.5,0.1,0.9,0.3,1s0.4,0.2,0.8,0.2c0.4,0,0.7-0.1,0.9-0.3
		c0.2-0.2,0.3-0.6,0.3-1.3c0-0.6,0.1-1.8,0.1-3.5v-8.9h4.5v17.9H437L436.9,126.9z"/>
</g>
<g id="XMLID_2_">
	<path id="XMLID_4_" class="st1" d="M230.4,172.9h7.8c4,0,6,2.3,6,6.9c0,1.9-0.3,3.4-0.8,4.5c-0.5,1-1.3,1.7-2.4,2v0.2
		c1.2,0.3,2.1,1,2.6,1.9c0.5,1,0.8,2.5,0.8,4.7c0,2.5-0.5,4.3-1.5,5.5c-1,1.2-2.5,1.8-4.7,1.8h-7.8V172.9z M238.2,183.8
		c0.2-0.1,0.4-0.4,0.5-0.9c0.1-0.4,0.2-1.1,0.2-2c0-1,0-1.6-0.1-2.1s-0.2-0.7-0.5-0.8c-0.3-0.1-0.7-0.2-1.2-0.2h-1.2v6.2h1.2
		C237.6,184.1,238,184,238.2,183.8z M238.3,195.2c0.2-0.1,0.4-0.4,0.5-0.9s0.1-1.2,0.1-2.2c0-1-0.1-1.7-0.2-2.1
		c-0.1-0.4-0.3-0.7-0.5-0.9c-0.2-0.1-0.6-0.2-1.2-0.2h-1.2v6.5h1.2C237.7,195.4,238.1,195.3,238.3,195.2z"/>
	<path id="XMLID_11_" class="st1" d="M254.5,198h-0.4c-0.5,1.8-1.8,2.7-3.8,2.7c-1.1,0-1.9-0.2-2.5-0.7c-0.5-0.5-0.9-1.2-1.1-2.2
		c-0.2-1-0.3-2.4-0.3-4.1V180h5.2v11.2c0,1.7,0,2.8,0.1,3.5c0.1,0.6,0.2,1,0.3,1.2c0.2,0.2,0.5,0.2,0.9,0.2c0.5,0,0.8-0.1,1-0.4
		c0.2-0.3,0.3-0.7,0.3-1.5s0.1-2.1,0.1-4V180h5.2v20.4h-4.9L254.5,198z"/>
	<path id="XMLID_13_" class="st1" d="M262.3,175.6v-4.9h5.2v4.9H262.3z M262.3,200.4V180h5.2v20.4H262.3z"/>
	<path id="XMLID_16_" class="st1" d="M270.2,200.4v-29.7h5.2v29.7H270.2z"/>
	<path id="XMLID_18_" class="st1" d="M279.5,199.8c-0.6-0.6-1.1-1.6-1.3-3.1c-0.3-1.5-0.4-3.7-0.4-6.5c0-2.7,0.1-4.9,0.4-6.4
		c0.2-1.5,0.7-2.6,1.3-3.2c0.6-0.6,1.5-1,2.7-1c1.8,0,3,0.8,3.4,2.5h0.4v-11.5h5.2v29.7h-5l-0.2-2.4h-0.3c-0.2,1-0.6,1.6-1.3,2.1
		c-0.6,0.4-1.3,0.6-2.1,0.6C281.1,200.7,280.2,200.4,279.5,199.8z M285.3,195.8c0.2-0.2,0.3-0.6,0.4-1.1c0.1-1,0.2-2.5,0.2-4.5
		c0-2,0-3.4-0.1-4.2c-0.1-0.7-0.3-1.1-0.4-1.3c-0.2-0.2-0.5-0.3-0.9-0.3c-0.5,0-0.8,0.1-1,0.3c-0.2,0.2-0.3,0.7-0.4,1.4
		c-0.1,0.7-0.1,2.1-0.1,4.1s0,3.4,0.1,4.1c0.1,0.7,0.2,1.2,0.4,1.4c0.2,0.2,0.5,0.3,1,0.3C284.8,196,285.1,195.9,285.3,195.8z"/>
	<path id="XMLID_21_" class="st1" d="M303.4,200.4v-9.6l-5.2-18h5.5l2.4,11.9h0.4l2.3-11.9h5.4l-5.2,18v9.6H303.4z"/>
	<path id="XMLID_23_" class="st1" d="M315.2,199.8c-0.9-0.6-1.5-1.6-1.8-3c-0.3-1.4-0.4-3.6-0.4-6.7s0.1-5.3,0.4-6.7
		c0.3-1.4,0.9-2.4,1.8-3c0.9-0.6,2.4-0.9,4.4-0.9c2.1,0,3.5,0.3,4.4,0.9c0.9,0.6,1.5,1.6,1.8,3s0.4,3.6,0.4,6.7s-0.1,5.3-0.4,6.7
		c-0.3,1.4-0.9,2.4-1.8,3c-0.9,0.6-2.4,0.9-4.4,0.9C317.5,200.7,316.1,200.4,315.2,199.8z M320.6,196c0.2-0.2,0.3-0.7,0.3-1.5
		c0.1-0.7,0.1-2.2,0.1-4.3c0-2.1,0-3.6-0.1-4.3c-0.1-0.7-0.2-1.2-0.3-1.5c-0.2-0.2-0.5-0.3-1-0.3c-0.5,0-0.8,0.1-1,0.3
		c-0.2,0.2-0.3,0.7-0.4,1.5c-0.1,0.8-0.1,2.2-0.1,4.3s0,3.5,0.1,4.3c0.1,0.8,0.2,1.3,0.4,1.5s0.5,0.3,1,0.3
		C320.1,196.3,320.4,196.2,320.6,196z"/>
	<path id="XMLID_26_" class="st1" d="M336.4,198h-0.4c-0.5,1.8-1.8,2.7-3.8,2.7c-1.1,0-1.9-0.2-2.5-0.7c-0.5-0.5-0.9-1.2-1.1-2.2
		c-0.2-1-0.3-2.4-0.3-4.1V180h5.2v11.2c0,1.7,0,2.8,0.1,3.5c0.1,0.6,0.2,1,0.3,1.2c0.2,0.2,0.5,0.2,0.9,0.2c0.5,0,0.8-0.1,1-0.4
		c0.2-0.3,0.3-0.7,0.3-1.5s0.1-2.1,0.1-4V180h5.2v20.4h-4.9L336.4,198z"/>
	<path id="XMLID_28_" class="st1" d="M344.3,180h5l0.2,3.3h0.3c0.4-1.3,0.9-2.3,1.5-2.8c0.6-0.5,1.4-0.8,2.5-0.8v5.6
		c-1.4,0-2.5,0.4-3.2,1.1c-0.7,0.7-1,2.1-1,4.2v9.8h-5.2V180z"/>
	<path id="XMLID_30_" class="st1" d="M371,200.4l-4.3-13.8h-0.2v13.8h-5.2v-27.5h5.1l3.9,12.5h0.2v-12.5h5.2v27.5H371z"/>
	<path id="XMLID_32_" class="st1" d="M391.2,191.7h-7.6c0,1.5,0.1,2.6,0.2,3.1c0.1,0.6,0.3,1,0.7,1.1c0.4,0.2,1,0.3,2,0.3
		c1.1,0,2.6-0.1,4.4-0.2v4c-0.6,0.2-1.5,0.3-2.5,0.4c-1.1,0.1-2.1,0.2-3.1,0.2c-2.1,0-3.6-0.4-4.6-1.1s-1.6-1.8-1.8-3.2
		c-0.3-1.4-0.4-3.4-0.4-6.2c0-2.7,0.1-4.8,0.4-6.2c0.3-1.4,0.9-2.5,1.8-3.2s2.4-1.1,4.4-1.1s3.4,0.3,4.3,1s1.4,1.7,1.6,3
		c0.2,1.3,0.3,3.5,0.3,6.5V191.7z M384,184.3c-0.2,0.2-0.3,0.5-0.4,1.1c-0.1,0.6-0.1,1.5-0.1,2.9h2.8v-0.1c0-1.3,0-2.3-0.1-2.8
		c-0.1-0.5-0.2-0.9-0.4-1s-0.5-0.2-0.9-0.2C384.5,184.1,384.2,184.1,384,184.3z"/>
	<path id="XMLID_35_" class="st1" d="M404.8,200.4l-1.6-10.8H403l-1.5,10.8H395l-3-20.4h5l1.3,13.8h0.3l2-13.8h5.1l2,13.8h0.4
		l1.3-13.8h4.8l-3,20.4H404.8z"/>
	<path id="XMLID_37_" class="st1" d="M435.6,200.4l-2-19.2h-0.2l-2,19.2h-7.8l-2.8-27.5h5.6l1.3,21.8h0.3l2.2-21.8h6.8l2.3,21.8h0.3
		l1.2-21.8h5.4l-2.8,27.5H435.6z"/>
	<path id="XMLID_39_" class="st1" d="M459.3,191.7h-7.6c0,1.5,0.1,2.6,0.2,3.1c0.1,0.6,0.3,1,0.7,1.1c0.4,0.2,1,0.3,2,0.3
		c1.1,0,2.6-0.1,4.4-0.2v4c-0.6,0.2-1.5,0.3-2.5,0.4c-1.1,0.1-2.1,0.2-3.1,0.2c-2.1,0-3.6-0.4-4.6-1.1s-1.6-1.8-1.8-3.2
		c-0.3-1.4-0.4-3.4-0.4-6.2c0-2.7,0.1-4.8,0.4-6.2c0.3-1.4,0.9-2.5,1.8-3.2s2.4-1.1,4.4-1.1s3.4,0.3,4.3,1s1.4,1.7,1.6,3
		c0.2,1.3,0.3,3.5,0.3,6.5V191.7z M452.2,184.3c-0.2,0.2-0.3,0.5-0.4,1.1c-0.1,0.6-0.1,1.5-0.1,2.9h2.8v-0.1c0-1.3,0-2.3-0.1-2.8
		c-0.1-0.5-0.2-0.9-0.4-1s-0.5-0.2-0.9-0.2C452.7,184.1,452.3,184.1,452.2,184.3z"/>
	<path id="XMLID_42_" class="st1" d="M468.3,200.1c-0.6-0.4-1-1.1-1.3-2.1h-0.3l-0.2,2.4h-5v-29.7h5.2v11.5h0.4
		c0.4-1.7,1.5-2.5,3.4-2.5c1.2,0,2.1,0.3,2.7,1c0.6,0.6,1.1,1.7,1.3,3.2c0.2,1.5,0.4,3.6,0.4,6.4c0,2.9-0.1,5-0.4,6.5
		c-0.3,1.5-0.7,2.5-1.3,3.1c-0.6,0.6-1.5,0.9-2.7,0.9C469.7,200.7,469,200.5,468.3,200.1z M469.3,195.7c0.2-0.2,0.3-0.7,0.4-1.4
		c0.1-0.7,0.1-2.1,0.1-4.1s0-3.4-0.1-4.1c-0.1-0.7-0.2-1.2-0.4-1.4s-0.5-0.3-1-0.3c-0.4,0-0.7,0.1-0.8,0.2s-0.3,0.4-0.4,0.8
		c-0.1,0.9-0.2,2.5-0.2,4.8s0.1,3.9,0.2,4.6c0.1,0.5,0.3,0.8,0.4,1s0.5,0.2,0.9,0.2C468.8,196,469.1,195.9,469.3,195.7z"/>
	<path id="XMLID_45_" class="st1" d="M492.9,200.4l-0.7-5.5h-4.1l-0.7,5.5h-5.5l4.1-27.5h8.3l4.1,27.5H492.9z M490.3,178.3H490
		l-1.4,11.8h3.1L490.3,178.3z"/>
	<path id="XMLID_48_" class="st1" d="M500,180h5l0.2,2.4h0.3c0.2-1,0.6-1.6,1.3-2.1c0.6-0.4,1.3-0.6,2.1-0.6c1.2,0,2.1,0.3,2.7,0.9
		s1.1,1.6,1.3,3.1c0.3,1.5,0.4,3.7,0.4,6.5c0,2.7-0.1,4.9-0.4,6.4c-0.2,1.5-0.7,2.6-1.3,3.2c-0.6,0.6-1.5,1-2.7,1
		c-1.8,0-2.9-0.8-3.4-2.5h-0.4v10.1H500V180z M507.7,195.7c0.2-0.2,0.3-0.7,0.4-1.4c0.1-0.7,0.1-2.1,0.1-4.1s0-3.4-0.1-4.1
		c-0.1-0.7-0.2-1.2-0.4-1.4c-0.2-0.2-0.5-0.3-1-0.3c-0.4,0-0.7,0.1-0.9,0.2c-0.2,0.2-0.4,0.5-0.5,1c-0.1,0.7-0.1,2.3-0.1,4.6
		c0,2.3,0,3.8,0.1,4.4c0.1,0.6,0.3,1,0.5,1.2c0.2,0.2,0.5,0.3,0.9,0.3C507.2,196,507.5,195.9,507.7,195.7z"/>
	<path id="XMLID_51_" class="st1" d="M515.6,180h5l0.2,2.4h0.3c0.2-1,0.6-1.6,1.3-2.1c0.6-0.4,1.3-0.6,2.1-0.6
		c1.2,0,2.1,0.3,2.7,0.9c0.6,0.6,1.1,1.6,1.3,3.1c0.3,1.5,0.4,3.7,0.4,6.5c0,2.7-0.1,4.9-0.4,6.4s-0.7,2.6-1.3,3.2
		c-0.6,0.6-1.5,1-2.7,1c-1.8,0-2.9-0.8-3.4-2.5h-0.4v10.1h-5.2V180z M523.3,195.7c0.2-0.2,0.3-0.7,0.4-1.4c0.1-0.7,0.1-2.1,0.1-4.1
		s0-3.4-0.1-4.1c-0.1-0.7-0.2-1.2-0.4-1.4s-0.5-0.3-1-0.3c-0.4,0-0.7,0.1-0.9,0.2c-0.2,0.2-0.4,0.5-0.5,1c-0.1,0.7-0.1,2.3-0.1,4.6
		c0,2.3,0,3.8,0.1,4.4c0.1,0.6,0.3,1,0.5,1.2c0.2,0.2,0.5,0.3,0.9,0.3C522.8,196,523.1,195.9,523.3,195.7z"/>
	<path id="XMLID_54_" class="st1" d="M531.7,200.4v-5.3h5.6v5.3H531.7z"/>
</g>
</svg>
